HIERARCHY
ROOT Hips
{
    OFFSET 0.000000 0.000000 0.000000
    CHANNELS 6 Xposition Yposition Zposition Zrotation Xrotation Yrotation
        JOINT Chest
        {
            OFFSET -0.000000 34.099812 -0.000000
            CHANNELS 3 Zrotation Xrotation Yrotation
            JOINT Neck
            {
                OFFSET -0.000000 25.785578 0.000000
                CHANNELS 3 Zrotation Xrotation Yrotation
                JOINT Head
                {
                    OFFSET -0.000000 11.061110 0.000000
                    CHANNELS 3 Zrotation Xrotation Yrotation
                    End Site
                    {
                        OFFSET -0.000000 17.094444 0.000000
                    }
                }
            }
            JOINT LeftCollar
            {
                OFFSET -0.000000 25.785578 0.000000
                CHANNELS 3 Zrotation Xrotation Yrotation
                JOINT LeftShoulder
                {
                    OFFSET 19.000000 -0.000000 0.000000
                    CHANNELS 3 Zrotation Xrotation Yrotation
                    JOINT LeftElbow
                    {
                        OFFSET 29.227484 0.000000 0.000000
                        CHANNELS 3 Zrotation Xrotation Yrotation
                        JOINT LeftWrist
                        {
                            OFFSET 22.377386 0.000000 0.000000
                            CHANNELS 3 Zrotation Xrotation Yrotation
                            End Site
                            {
                                OFFSET 0.000000 -15.083334 0.000000
                            }
                        }
                    }
                }
            }
            JOINT RightCollar
            {
                OFFSET -0.000000 25.785578 0.000000
                CHANNELS 3 Zrotation Xrotation Yrotation
                JOINT RightShoulder
                {
                    OFFSET -19.000000 0.000000 0.000000
                    CHANNELS 3 Zrotation Xrotation Yrotation
                    JOINT RightElbow
                    {
                        OFFSET -29.227484 0.000000 0.000000
                        CHANNELS 3 Zrotation Xrotation Yrotation
                        JOINT RightWrist
                        {
                            OFFSET -22.377386 0.000000 0.000000
                            CHANNELS 3 Zrotation Xrotation Yrotation
                            End Site
                            {
                                OFFSET -0.000000 -15.083334 0.000000
                            }
                        }
                    }
                }
            }
        }
    JOINT LeftHip
    {
        OFFSET 12.066666 0.000000 0.000000
        CHANNELS 3 Zrotation Xrotation Yrotation
        JOINT LeftKnee
        {
            OFFSET -0.000000 -38.619030 0.000000
            CHANNELS 3 Zrotation Xrotation Yrotation
            JOINT LeftAnkle
            {
                OFFSET -0.000000 -42.566540 0.000000
                CHANNELS 3 Zrotation Xrotation Yrotation
                End Site
                {
                    OFFSET -0.000000 -5.027778 17.094444
                }
            }
        }
    }
    JOINT RightHip
    {
        OFFSET -12.066666 0.000000 0.000000
        CHANNELS 3 Zrotation Xrotation Yrotation
        JOINT RightKnee
        {
            OFFSET -0.000000 -38.619030 0.000000
            CHANNELS 3 Zrotation Xrotation Yrotation
            JOINT RightAnkle
            {
                OFFSET -0.000000 -42.566540 0.000000
                CHANNELS 3 Zrotation Xrotation Yrotation
                End Site
                {
                    OFFSET -0.000000 -5.027778 17.094444
                }
            }
        }
    }
}
MOTION
Frames:    10
Frame Time:    0.010000
102.007103    87.901779    -31.438881    6.684350    3.097933    -78.636009    15.931783    20.662846    -4.416829    -13.632343    1.853049    14.725762    -1.001381    -17.414717    14.361167    -7.244182    -0.435076    6.670969    -29.603975    22.676483    -52.506474    -5.162608    5.638802    -102.432358    127.885025    3.653414    22.461777    22.333838    1.894031    9.603719    8.759144    33.420414    29.019976    -27.015324    -14.752798    55.812599    -146.551117    -13.882022    -25.643351    21.732027    -21.361416    -0.689642    -31.047163    28.855846    16.653673    -5.868577    -12.417039    26.341211    1.966495    -33.178734    3.333406    -3.095869    40.889740    13.200428    -3.720136    -16.153778    -6.119668    
102.013611    87.937111    -31.498034    6.727963    2.986153    -78.687325    16.134197    20.169977    -4.640447    -13.721430    2.603630    14.971552    -1.268962    -17.048683    14.476151    -7.167349    -0.406331    6.443602    -29.514933    21.905031    -52.001457    -4.750415    5.550333    -102.956512    127.940094    5.360476    20.295145    22.207476    1.832666    9.493109    8.243215    33.145927    28.547308    -28.673262    -16.127674    56.353928    -147.545837    -11.910864    -26.226934    21.906796    -21.220722    -0.845637    -31.060211    28.932301    15.911934    -7.187020    -13.244451    26.031199    1.965630    -33.063877    3.017657    -3.470538    40.549923    13.117238    -3.389701    -15.993852    -5.621737    
102.026794    87.978836    -31.527102    6.804897    2.886932    -78.786652    16.463617    19.684204    -4.846055    -14.349149    3.126238    15.177745    -1.181471    -16.710739    14.617012    -7.365794    -0.428751    6.448260    -28.642126    21.726791    -51.962032    -4.573458    5.415690    -101.606773    129.241547    1.099926    16.895414    21.835493    1.720257    8.663211    7.203668    33.424995    30.230911    -29.952953    -16.490957    54.586826    -147.329132    -12.572157    -25.258121    22.111082    -21.092947    -0.902785    -30.942030    29.175432    15.742364    -10.040098    -14.541484    25.303066    1.961786    -33.019119    3.154682    -3.486498    40.352215    13.412159    -3.652286    -15.916347    -5.961887    
101.741669    87.983421    -31.438532    6.065505    2.633617    -78.830826    16.701044    20.007820    -5.395946    -14.162514    3.542130    15.370163    -1.739523    -16.064112    14.692276    -7.254247    -0.396560    6.126495    -28.749046    20.722288    -51.097527    -4.755994    6.084167    -101.095688    129.020981    -0.438493    13.779366    21.711773    1.617180    8.117215    6.314059    32.852810    30.637142    -30.906153    -16.820816    54.748589    -145.136520    -11.719315    -24.139055    22.020687    -19.821728    -0.533815    -30.277609    29.414293    12.848383    -7.375134    -13.571495    25.489458    1.824535    -31.763479    3.674692    -2.996899    39.771446    12.786950    -3.358730    -15.785360    -6.076324    
101.772141    88.037788    -31.451431    6.158455    2.561303    -78.958557    16.890642    19.519905    -5.640663    -14.370661    4.229235    15.653367    -1.798743    -16.078918    14.876648    -7.136930    -0.355831    6.125215    -28.742458    19.998161    -50.498596    -4.940070    6.199236    -101.092712    129.075562    -0.453924    11.475737    21.481886    1.528259    7.940738    5.672342    32.642220    30.617735    -32.581852    -17.840538    54.609329    -148.818146    -9.592259    -25.594259    22.028749    -19.684513    -0.518598    -29.930830    29.949583    12.159516    -7.894594    -14.977036    24.334450    1.859595    -31.798107    4.249932    -2.720352    39.671169    12.502511    -3.317567    -15.708946    -6.340426    
101.752174    88.092361    -31.419050    6.106145    2.443678    -79.077362    16.956640    19.164320    -5.810938    -14.173320    4.586143    15.806829    -2.133229    -15.391232    14.954683    -6.892541    -0.358120    5.947955    -29.273598    19.028118    -49.895874    -5.171407    6.541051    -100.841423    128.770416    -0.605124    9.939342    21.071548    1.509962    8.226037    6.632142    31.083263    28.360125    -32.987740    -18.249027    56.756569    -149.495514    -8.000423    -24.861792    21.944567    -19.272165    -0.714405    -29.394360    29.939251    11.614100    -8.353974    -15.174295    23.483318    1.824234    -31.645693    4.889191    -2.347858    39.601978    12.417662    -3.295542    -15.703769    -6.903602    
101.750351    88.139938    -31.388988    6.108034    2.352913    -79.263618    17.146156    18.789118    -5.858293    -14.283367    5.323822    16.033709    -2.512247    -15.570517    15.031931    -6.946655    -0.335524    5.712370    -29.247128    18.083195    -48.906967    -5.443580    6.976898    -101.274460    129.286041    -0.222548    8.259591    20.676680    1.415390    7.532829    4.786548    30.318142    29.653288    -33.140259    -18.300522    56.651730    -149.388474    -6.491698    -24.017721    21.878885    -18.847218    -0.946613    -28.940025    29.695639    8.958859    -8.216435    -15.579740    25.767084    1.828852    -31.583397    5.653611    -1.893091    39.581104    12.316139    -3.310575    -15.714712    -7.561563    
101.758194    88.183662    -31.348562    6.169340    2.251506    -79.514633    17.440168    18.739906    -5.839210    -14.332444    4.990313    16.019938    -2.712402    -14.751659    15.040108    -7.060742    -0.387117    6.115336    -27.390184    18.817677    -49.658974    -4.811271    4.842900    -101.375626    128.029556    -0.615369    6.176731    19.641500    1.331082    7.959679    7.663924    28.404970    26.270859    -33.322956    -19.115267    59.417233    -149.797562    -6.836573    -22.507437    21.745390    -18.370914    -1.241631    -28.744303    29.689386    8.669447    -6.410610    -15.809437    26.175097    1.827254    -31.600630    6.168186    -1.671989    39.537991    12.479442    -3.391147    -15.673410    -8.070662    
101.784325    88.223473    -31.296978    6.256108    2.159950    -79.775665    17.189421    18.546066    -5.930111    -13.726325    5.040714    16.161169    -3.169840    -14.449266    15.159222    -6.426691    -0.293837    5.619214    -29.494087    16.084538    -47.497391    -5.184220    7.243596    -102.002945    129.603760    0.679695    6.542030    19.710323    1.268164    6.970327    4.949804    27.782248    28.139282    -33.943855    -19.756607    59.004230    -149.953003    -4.683894    -22.117573    21.649235    -17.817600    -1.760346    -28.537214    28.756279    9.348532    -6.893137    -15.582073    27.129782    1.830608    -31.633951    6.607158    -1.548077    39.405632    12.379417    -3.272554    -15.620637    -8.148753    
101.721001    88.249306    -31.200752    6.055126    2.075021    -79.979095    17.047239    18.566647    -5.964799    -13.238708    4.809464    16.196568    -3.368289    -13.621892    15.238276    -6.024113    -0.292983    5.904018    -28.533840    16.159693    -47.627529    -5.213906    6.294418    -102.200691    128.641647    0.202119    3.812175    19.264887    1.194005    6.915730    7.978699    26.749191    25.126831    -35.718620    -21.666838    60.376171    -151.640167    -4.108325    -23.113781    21.502079    -16.956861    -2.222175    -28.309406    28.005867    12.279430    -6.663579    -15.003379    27.026196    1.812303    -31.275608    6.765827    -1.540126    39.182232    12.359496    -2.909659    -15.638204    -8.130477    
